<?xml version="1.0" encoding="UTF-8"?>
<svg version="1.1" xmlns="http://www.w3.org/2000/svg" width="150" height="148">
<path d="M0 0 C1.53715551 2.80697962 2.22532853 4.800595 1.625 7.99609375 C0.41658979 11.62819033 -0.44073851 13.5647566 -3.54541016 15.98095703 C-7.08655754 20.33642039 -6.63499597 23.88268861 -6.48828125 29.33203125 C-6.48120651 30.32377853 -6.47413177 31.31552582 -6.46684265 32.33732605 C-6.43891433 35.49649342 -6.3761772 38.65387082 -6.3125 41.8125 C-6.28741518 43.95765665 -6.26460234 46.10284115 -6.24414062 48.24804688 C-6.18909327 53.49930584 -6.1054831 58.74952503 -6 64 C-7.62414378 64.19477739 -9.24936423 64.38059458 -10.875 64.5625 C-12.23238281 64.71912109 -12.23238281 64.71912109 -13.6171875 64.87890625 C-16 65 -16 65 -18 64 C-18.33 52.78 -18.66 41.56 -19 30 C-22.96 41.22 -26.92 52.44 -31 64 C-34.3 64 -37.6 64 -41 64 C-41.83698386 61.54285453 -42.66972424 59.08441143 -43.5 56.625 C-43.73847656 55.92632812 -43.97695312 55.22765625 -44.22265625 54.5078125 C-46 49.2265625 -46 49.2265625 -46 47 C-48.31 47.99 -50.62 48.98 -53 50 C-53.33 54.62 -53.66 59.24 -54 64 C-69.51 64 -85.02 64 -101 64 C-101.33 63.34 -101.66 62.68 -102 62 C-104.38084878 61.15701426 -104.38084878 61.15701426 -107 61 C-108.485 61.99 -108.485 61.99 -110 63 C-112.26045805 61.03121396 -113.80271461 59.45622246 -115 56.6875 C-115 52.63675616 -113.48776915 50.04972716 -111 47 C-105.94270771 42.0880322 -100.58748372 38.72224935 -94.25 35.6875 C-87.46851846 32.24471716 -84.75457452 27.95561512 -82 21 C-83.18852855 19.58225162 -83.18852855 19.58225162 -86.59765625 19.90234375 C-88.08596867 19.9090178 -89.57426432 19.92097817 -91.0625 19.9375 C-91.82111328 19.94201172 -92.57972656 19.94652344 -93.36132812 19.95117188 C-95.24091871 19.9629932 -97.12046899 19.98092922 -99 20 C-100.164859 15.72885032 -99.68943889 12.33580455 -99 8 C-98.02764404 8.03552979 -97.05528809 8.07105957 -96.0534668 8.10766602 C-92.39516033 8.2394853 -88.73659045 8.36211515 -85.07788086 8.48217773 C-83.50390342 8.53506698 -81.93000411 8.59034386 -80.35620117 8.64819336 C-72.2202389 8.94569277 -64.27291959 9.21325525 -56.17504883 8.13647461 C-53.83298752 7.98952071 -52.19219052 8.16360416 -50 9 C-48.5859375 11.51171875 -48.5859375 11.51171875 -47.375 14.6875 C-46.97023438 15.72261719 -46.56546875 16.75773437 -46.1484375 17.82421875 C-42.62102286 27.57860005 -42.62102286 27.57860005 -43 32 C-43.33 32.33 -43.66 32.66 -44 33 C-36.08508883 28.23880586 -29.02059493 22.98855389 -22 17 C-22.66 17 -23.32 17 -24 17 C-24.87324262 14.55492066 -25.10151327 13.32299678 -24.3125 10.8125 C-23 9 -23 9 -21.0625 8.1875 C-19 8 -19 8 -16 9 C-15.505 9.495 -15.505 9.495 -15 10 C-11.92543016 9.33669415 -11.92543016 9.33669415 -10.875 7.125 C-10.18238818 5.44294273 -9.5752415 3.72572449 -9 2 C-10.99616554 0.00383446 -14.81701963 0.59016573 -17.5625 0.4375 C-18.27341797 0.39431641 -18.98433594 0.35113281 -19.71679688 0.30664062 C-21.47761912 0.20028223 -23.2387832 0.09961154 -25 0 C-18.28722838 -4.47518108 -6.90008231 -4.23146073 0 0 Z M-66 13 C-66.14695312 13.53367187 -66.29390625 14.06734375 -66.4453125 14.6171875 C-68.08498341 20.06391041 -70.36829917 24.56643957 -73.37890625 29.37890625 C-75.0910386 32.14719734 -76.68364404 34.95935773 -78.25 37.8125 C-78.96929687 39.12154297 -78.96929687 39.12154297 -79.703125 40.45703125 C-80.96282399 42.92710367 -82.0142058 45.40996525 -83 48 C-81.10174715 47.57312017 -79.20646817 47.13300518 -77.3125 46.6875 C-76.25675781 46.44386719 -75.20101562 46.20023438 -74.11328125 45.94921875 C-70.92911155 44.97838658 -68.61754177 44.06101938 -66 42 C-64.992847 38.40269012 -64.88245174 34.98152438 -64.90234375 31.26171875 C-64.90556641 30.19501953 -64.90878906 29.12832031 -64.91210938 28.02929688 C-64.92048828 26.92650391 -64.92886719 25.82371094 -64.9375 24.6875 C-64.94201172 23.56537109 -64.94652344 22.44324219 -64.95117188 21.28710938 C-64.96292687 18.5246849 -64.97935923 15.76237002 -65 13 C-65.33 13 -65.66 13 -66 13 Z M-54 27 C-53.9071875 27.66386719 -53.814375 28.32773437 -53.71875 29.01171875 C-53.4866184 31.85118562 -53.4293532 34.20254351 -54 37 C-55.85564392 38.85131841 -57.6011019 39.83622914 -59.95703125 40.96484375 C-62.08955071 42.04537464 -63.40739782 43.23658244 -65 45 C-58.83643195 43.3341708 -53.51740344 40.12194714 -48 37 C-48.99 36.67 -49.98 36.34 -51 36 C-51.73046875 33.93359375 -51.73046875 33.93359375 -52.1875 31.4375 C-52.34605469 30.61121094 -52.50460938 29.78492188 -52.66796875 28.93359375 C-52.77753906 28.29550781 -52.88710937 27.65742187 -53 27 C-53.33 27 -53.66 27 -54 27 Z M-90.69921875 38.21484375 C-92.17841797 39.06755859 -92.17841797 39.06755859 -93.6875 39.9375 C-94.68136719 40.50339844 -95.67523438 41.06929687 -96.69921875 41.65234375 C-97.45847656 42.09707031 -98.21773437 42.54179688 -99 43 C-98.34 43.33 -97.68 43.66 -97 44 C-97.78375 44.721875 -98.5675 45.44375 -99.375 46.1875 C-101.84412438 48.83299041 -102.93260278 50.60373611 -104 54 C-102.7995888 55.41963042 -102.7995888 55.41963042 -99.3125 55.25 C-88.00624088 55.08899315 -76.3063216 51.57220416 -66 47 C-65.67 46.34 -65.34 45.68 -65 45 C-68.9574609 45.63192988 -72.57097363 46.84512112 -76.33422852 48.17163086 C-83.58378228 50.72352794 -90.2377967 52.87679042 -98 53 C-98.33 52.67 -98.66 52.34 -99 52 C-95.05708355 46.1154959 -90.8845041 41.94291645 -85 38 C-87.987406 36.62768396 -87.987406 36.62768396 -90.69921875 38.21484375 Z M-39 43 C-38.34 44.65 -37.68 46.3 -37 48 C-36.34 48 -35.68 48 -35 48 C-34.34 45.03 -33.68 42.06 -33 39 C-35.22114466 39 -37.35878948 41.65336573 -39 43 Z M-101 44 C-101 44.99 -101 45.98 -101 47 C-100.34 46.01 -99.68 45.02 -99 44 C-99.66 44 -100.32 44 -101 44 Z M-110.125 50.6875 C-112.24492686 52.86333117 -112.24492686 52.86333117 -112.25 55.75 C-112.1675 56.4925 -112.085 57.235 -112 58 C-111.7525 57.443125 -111.505 56.88625 -111.25 56.3125 C-109.78393985 53.60028873 -107.97010529 51.36412635 -106 49 C-108.19121916 48.79270595 -108.19121916 48.79270595 -110.125 50.6875 Z " fill="#3F3E3F" transform="translate(130,33)"/>
<path d="M0 0 C0.97235596 0.03552979 1.94471191 0.07105957 2.9465332 0.10766602 C6.60483967 0.2394853 10.26340955 0.36211515 13.92211914 0.48217773 C15.49609658 0.53506698 17.06999589 0.59034386 18.64379883 0.64819336 C26.7797611 0.94569277 34.72708041 1.21325525 42.82495117 0.13647461 C45.16701248 -0.01047929 46.80780948 0.16360416 49 1 C50.4140625 3.51171875 50.4140625 3.51171875 51.625 6.6875 C52.02976562 7.72261719 52.43453125 8.75773437 52.8515625 9.82421875 C56.66749689 20.37644547 56.66749689 20.37644547 56 24 C53.6875 26.3125 53.6875 26.3125 51 28 C50.01 28 49.02 28 48 28 C47.34 26.02 46.68 24.04 46 22 C46.2475 23.175625 46.495 24.35125 46.75 25.5625 C46.734375 27.77734375 46.734375 27.77734375 46 30 C36.42667784 38.52734807 18.26257298 44.40404616 5.8125 45.75 C4.99394531 45.84796875 4.17539062 45.9459375 3.33203125 46.046875 C0.70294957 45.99402914 -0.76404923 45.33643034 -3 44 C-1.515 43.505 -1.515 43.505 0 43 C1.42256016 41.30324166 1.42256016 41.30324166 2.75 39.25 C5.69759205 35.13225835 8.75104128 32.71933358 13 30 C8.76570244 31.31061591 4.92592596 32.94356259 1 35 C1 36.32 1 37.64 1 39 C-0.62553283 40.70680947 -2.29115995 42.37660195 -4 44 C-4 44.66 -4 45.32 -4 46 C0.62 46 5.24 46 10 46 C9.01 46.495 9.01 46.495 8 47 C8 47.66 8 48.32 8 49 C9.485 49.495 9.485 49.495 11 50 C7.04 49.67 3.08 49.34 -1 49 C-1 49.66 -1 50.32 -1 51 C0.65 51 2.3 51 4 51 C2.68 52.32 1.36 53.64 0 55 C10.89 55 21.78 55 33 55 C33 52.03 33 49.06 33 46 C33.66 46 34.32 46 35 46 C35 48.97 35 51.94 35 55 C37.97 55 40.94 55 44 55 C44 50.71 44 46.42 44 42 C44.33 42 44.66 42 45 42 C45 46.62 45 51.24 45 56 C29.49 56 13.98 56 -2 56 C-2.33 55.34 -2.66 54.68 -3 54 C-5.38084878 53.15701426 -5.38084878 53.15701426 -8 53 C-8.99 53.66 -9.98 54.32 -11 55 C-13.26045805 53.03121396 -14.80271461 51.45622246 -16 48.6875 C-16 44.63675616 -14.48776915 42.04972716 -12 39 C-6.94270771 34.0880322 -1.58748372 30.72224935 4.75 27.6875 C11.53148154 24.24471716 14.24542548 19.95561512 17 13 C15.81147145 11.58225162 15.81147145 11.58225162 12.40234375 11.90234375 C10.91403133 11.9090178 9.42573568 11.92097817 7.9375 11.9375 C7.17888672 11.94201172 6.42027344 11.94652344 5.63867188 11.95117188 C3.75908129 11.9629932 1.87953101 11.98092922 0 12 C-1.164859 7.72885032 -0.68943889 4.33580455 0 0 Z M33 5 C32.85304688 5.53367187 32.70609375 6.06734375 32.5546875 6.6171875 C30.91501659 12.06391041 28.63170083 16.56643957 25.62109375 21.37890625 C23.9089614 24.14719734 22.31635596 26.95935773 20.75 29.8125 C20.03070313 31.12154297 20.03070313 31.12154297 19.296875 32.45703125 C18.03717601 34.92710367 16.9857942 37.40996525 16 40 C17.89825285 39.57312017 19.79353183 39.13300518 21.6875 38.6875 C22.74324219 38.44386719 23.79898438 38.20023438 24.88671875 37.94921875 C28.07088845 36.97838658 30.38245823 36.06101938 33 34 C34.007153 30.40269012 34.11754826 26.98152438 34.09765625 23.26171875 C34.09443359 22.19501953 34.09121094 21.12832031 34.08789062 20.02929688 C34.07951172 18.92650391 34.07113281 17.82371094 34.0625 16.6875 C34.05798828 15.56537109 34.05347656 14.44324219 34.04882812 13.28710938 C34.03707313 10.5246849 34.02064077 7.76237002 34 5 C33.67 5 33.34 5 33 5 Z M-2 36 C-2 36.99 -2 37.98 -2 39 C-1.34 38.01 -0.68 37.02 0 36 C-0.66 36 -1.32 36 -2 36 Z M-11.125 42.6875 C-13.24492686 44.86333117 -13.24492686 44.86333117 -13.25 47.75 C-13.1675 48.4925 -13.085 49.235 -13 50 C-12.7525 49.443125 -12.505 48.88625 -12.25 48.3125 C-10.78393985 45.60028873 -8.97010529 43.36412635 -7 41 C-9.19121916 40.79270595 -9.19121916 40.79270595 -11.125 42.6875 Z " fill="#B60A21" transform="translate(31,41)"/>
<path d="M0 0 C1.53715551 2.80697962 2.22532853 4.800595 1.625 7.99609375 C0.41658979 11.62819033 -0.44073851 13.5647566 -3.54541016 15.98095703 C-7.08655754 20.33642039 -6.63499597 23.88268861 -6.48828125 29.33203125 C-6.48120651 30.32377853 -6.47413177 31.31552582 -6.46684265 32.33732605 C-6.43891433 35.49649342 -6.3761772 38.65387082 -6.3125 41.8125 C-6.28741518 43.95765665 -6.26460234 46.10284115 -6.24414062 48.24804688 C-6.18909327 53.49930584 -6.1054831 58.74952503 -6 64 C-7.62414378 64.19477739 -9.24936423 64.38059458 -10.875 64.5625 C-12.23238281 64.71912109 -12.23238281 64.71912109 -13.6171875 64.87890625 C-16 65 -16 65 -18 64 C-18 52.45 -18 40.9 -18 29 C-18.99 28.67 -19.98 28.34 -21 28 C-20.67 27.67 -20.34 27.34 -20 27 C-21.32 27 -22.64 27 -24 27 C-23.67 28.65 -23.34 30.3 -23 32 C-25.25 33.125 -25.25 33.125 -28 34 C-30.3125 33.125 -30.3125 33.125 -32 32 C-32 32.99 -32 33.98 -32 35 C-33.485 35.495 -33.485 35.495 -35 36 C-35 35.34 -35 34.68 -35 34 C-34.34 34 -33.68 34 -33 34 C-33.33 33.34 -33.66 32.68 -34 32 C-36.02463255 31.34786708 -36.02463255 31.34786708 -38 31 C-34.56846086 27.46808678 -31.02624938 24.2862495 -27.1875 21.1875 C-26.21167969 20.39730469 -25.23585938 19.60710938 -24.23046875 18.79296875 C-23.49441406 18.20128906 -22.75835937 17.60960938 -22 17 C-22.66 17 -23.32 17 -24 17 C-24.87324262 14.55492066 -25.10151327 13.32299678 -24.3125 10.8125 C-23 9 -23 9 -21.0625 8.1875 C-19 8 -19 8 -16 9 C-15.67 9.33 -15.34 9.66 -15 10 C-11.92543016 9.33669415 -11.92543016 9.33669415 -10.875 7.125 C-10.18238818 5.44294273 -9.5752415 3.72572449 -9 2 C-10.99616554 0.00383446 -14.81701963 0.59016573 -17.5625 0.4375 C-18.27341797 0.39431641 -18.98433594 0.35113281 -19.71679688 0.30664062 C-21.47761912 0.20028223 -23.2387832 0.09961154 -25 0 C-18.28722838 -4.47518108 -6.90008231 -4.23146073 0 0 Z " fill="#414141" transform="translate(130,33)"/>
<path d="M0 0 C2.8214974 1.1969989 4.15865495 2.45479118 6.0625 4.875 C6.453125 8.328125 6.453125 8.328125 6.3125 12.125 C6.27640625 13.38828125 6.2403125 14.6515625 6.203125 15.953125 C6.15671875 16.91734375 6.1103125 17.8815625 6.0625 18.875 C3.0925 18.875 0.1225 18.875 -2.9375 18.875 C-2.9375 15.905 -2.9375 12.935 -2.9375 9.875 C-3.5975 9.875 -4.2575 9.875 -4.9375 9.875 C-4.9375 12.845 -4.9375 15.815 -4.9375 18.875 C-15.8275 18.875 -26.7175 18.875 -37.9375 18.875 C-37.6075 17.885 -37.2775 16.895 -36.9375 15.875 C-37.5975 15.545 -38.2575 15.215 -38.9375 14.875 C-38.9375 14.215 -38.9375 13.555 -38.9375 12.875 C-35.9675 12.875 -32.9975 12.875 -29.9375 12.875 C-29.9375 12.215 -29.9375 11.555 -29.9375 10.875 C-28.39605247 10.31189978 -26.85432128 9.74957606 -25.3125 9.1875 C-24.31992187 8.82527344 -23.32734375 8.46304688 -22.3046875 8.08984375 C-19.93928505 7.23643289 -17.56901276 6.39645801 -15.1953125 5.56640625 C-13.95523438 5.13199219 -12.71515625 4.69757813 -11.4375 4.25 C-10.2721875 3.84523438 -9.106875 3.44046875 -7.90625 3.0234375 C-0.07761661 -0.00500752 -0.07761661 -0.00500752 0 0 Z " fill="#393838" transform="translate(68.9375,77.125)"/>
<path d="M0 0 C4.95 0 9.9 0 15 0 C16.00981089 2.72588833 17.00803308 5.45512264 18 8.1875 C18.28617188 8.95642578 18.57234375 9.72535156 18.8671875 10.51757812 C21.61306114 18.13410858 21.61306114 18.13410858 21 22 C18.6875 24.3125 18.6875 24.3125 16 26 C15.01 26 14.02 26 13 26 C12.34 24.02 11.68 22.04 11 20 C11 22.64 11 25.28 11 28 C4.5 32 4.5 32 0 32 C0 21.44 0 10.88 0 0 Z " fill="#B01329" transform="translate(66,43)"/>
<path d="M0 0 C0 3 0 3 -1.5 4.6875 C-1.995 5.120625 -2.49 5.55375 -3 6 C-2.34 6.33 -1.68 6.66 -1 7 C-5.95 9.475 -5.95 9.475 -11 12 C-11 13.32 -11 14.64 -11 16 C-12.62553283 17.70680947 -14.29115995 19.37660195 -16 21 C-16 21.66 -16 22.32 -16 23 C-11.38 23 -6.76 23 -2 23 C-2.66 23.33 -3.32 23.66 -4 24 C-4 24.66 -4 25.32 -4 26 C-3.01 26.33 -2.02 26.66 -1 27 C-4.96 26.67 -8.92 26.34 -13 26 C-13 26.66 -13 27.32 -13 28 C-11.35 28 -9.7 28 -8 28 C-9.32 29.32 -10.64 30.64 -12 32 C-1.11 32 9.78 32 21 32 C21 29.03 21 26.06 21 23 C21.66 23 22.32 23 23 23 C23 25.97 23 28.94 23 32 C25.97 32 28.94 32 32 32 C32 27.71 32 23.42 32 19 C32.33 19 32.66 19 33 19 C33 23.62 33 28.24 33 33 C17.49 33 1.98 33 -14 33 C-14.33 32.34 -14.66 31.68 -15 31 C-17.38084878 30.15701426 -17.38084878 30.15701426 -20 30 C-20.99 30.66 -21.98 31.32 -23 32 C-25.26045805 30.03121396 -26.80271461 28.45622246 -28 25.6875 C-28 21.63675616 -26.48776915 19.04972716 -24 16 C-17.94897076 10.12285091 -11.02809913 6.15791776 -3.58984375 2.34765625 C-1.13497811 1.23526467 -1.13497811 1.23526467 0 0 Z M-14 13 C-14 13.99 -14 14.98 -14 16 C-13.34 15.01 -12.68 14.02 -12 13 C-12.66 13 -13.32 13 -14 13 Z M-23.125 19.6875 C-25.24492686 21.86333117 -25.24492686 21.86333117 -25.25 24.75 C-25.1675 25.4925 -25.085 26.235 -25 27 C-24.7525 26.443125 -24.505 25.88625 -24.25 25.3125 C-22.78393985 22.60028873 -20.97010529 20.36412635 -19 18 C-21.19121916 17.79270595 -21.19121916 17.79270595 -23.125 19.6875 Z " fill="#2D2D2B" transform="translate(43,64)"/>
<path d="M0 0 C0.33 3.3 0.66 6.6 1 10 C2.65 10 4.3 10 6 10 C8.48887372 14.68493876 7.85687773 17.9444214 7 23 C3.7 23 0.4 23 -3 23 C-3.83698386 20.54285453 -4.66972424 18.08441143 -5.5 15.625 C-5.73847656 14.92632812 -5.97695312 14.22765625 -6.22265625 13.5078125 C-8 8.2265625 -8 8.2265625 -8 6 C-8.88751953 6.37705078 -8.88751953 6.37705078 -9.79296875 6.76171875 C-16.32761578 9.28816467 -16.32761578 9.28816467 -20.0625 7.6875 C-20.701875 7.130625 -21.34125 6.57375 -22 6 C-21.67 4.35 -21.34 2.7 -21 1 C-17.7 1 -14.4 1 -11 1 C-11 1.66 -11 2.32 -11 3 C-9.68 3 -8.36 3 -7 3 C-6.67 2.01 -6.34 1.02 -6 0 C-3 -1 -3 -1 0 0 Z M1 11 C1 11.66 1 12.32 1 13 C1.66 13 2.32 13 3 13 C3 12.34 3 11.68 3 11 C2.34 11 1.68 11 1 11 Z " fill="#333333" transform="translate(92,74)"/>
<path d="M0 0 C1.45853394 0.05329468 1.45853394 0.05329468 2.9465332 0.10766602 C6.60483967 0.2394853 10.26340955 0.36211515 13.92211914 0.48217773 C15.49609658 0.53506698 17.06999589 0.59034386 18.64379883 0.64819336 C26.7797611 0.94569277 34.72708041 1.21325525 42.82495117 0.13647461 C45.1120951 -0.00703347 46.82182313 0.32598754 49 1 C49 1.33 49 1.66 49 2 C44.38 2 39.76 2 35 2 C35 12.56 35 23.12 35 34 C35.99 34.495 35.99 34.495 37 35 C21.85375494 43 21.85375494 43 14 43 C14.49831724 39.31245243 15.10067643 37.39509338 18 35 C17.67 36.32 17.34 37.64 17 39 C19.12565222 38.35631658 21.25050346 37.70998756 23.375 37.0625 C25.15003906 36.52302734 25.15003906 36.52302734 26.9609375 35.97265625 C29.87926818 35.12423726 29.87926818 35.12423726 32 34 C33.51656078 29.24047907 33.11038829 24.12736118 33.0625 19.1875 C33.05798828 18.30384766 33.05347656 17.42019531 33.04882812 16.50976562 C33.03709866 14.33981441 33.01916495 12.16989828 33 10 C32.34 10.66 31.68 11.32 31 12 C31 8.7 31 5.4 31 2 C21.1 2 11.2 2 1 2 C1 4.64 1 7.28 1 10 C7.27 10 13.54 10 20 10 C19.34 11.65 18.68 13.3 18 15 C17.34 14.01 16.68 13.02 16 12 C13.2114711 11.77892213 10.65346819 11.71892465 7.875 11.8125 C7.12089844 11.82603516 6.36679687 11.83957031 5.58984375 11.85351562 C3.72625873 11.88890015 1.86304022 11.94270833 0 12 C-1.164859 7.72885032 -0.68943889 4.33580455 0 0 Z " fill="#BB777F" transform="translate(31,41)"/>
<path d="M0 0 C0 3.64699988 -1.05795852 5.32389571 -2.8125 8.5 C-3.33457031 9.4590625 -3.85664062 10.418125 -4.39453125 11.40625 C-6 14 -6 14 -7.57421875 15.46875 C-9.63201006 17.67876149 -10.17353467 20.13915848 -11 23 C-13.08042163 23.39083065 -15.16452339 23.7621087 -17.25 24.125 C-18.99023438 24.43824219 -18.99023438 24.43824219 -20.765625 24.7578125 C-24.03554316 25.00266144 -25.32492834 24.78779541 -28 23 C-27.01 22.67 -26.02 22.34 -25 22 C-23.61188043 20.33642033 -23.61188043 20.33642033 -22.3125 18.3125 C-19.52995605 14.40852776 -16.50256772 11.8837439 -12.5390625 9.2265625 C-11.77722656 8.61941406 -11.77722656 8.61941406 -11 8 C-11 7.34 -11 6.68 -11 6 C-7.37 4.02 -3.74 2.04 0 0 Z " fill="#AF2C3F" transform="translate(56,62)"/>
<path d="M0 0 C0 3 0 3 -1.5 4.6875 C-1.995 5.120625 -2.49 5.55375 -3 6 C-2.34 6.33 -1.68 6.66 -1 7 C-5.95 9.475 -5.95 9.475 -11 12 C-11 13.32 -11 14.64 -11 16 C-12.6459651 17.68711423 -14.31237149 19.3545622 -16 21 C-16 21.99 -16 22.98 -16 24 C-16.66 24 -17.32 24 -18 24 C-18.33 23.01 -18.66 22.02 -19 21 C-19.66 21.66 -20.32 22.32 -21 23 C-21 22.01 -21 21.02 -21 20 C-21.99 20.66 -22.98 21.32 -24 22 C-24.50500243 25.19834873 -24.27331609 26.5786377 -22.5 29.3125 C-22.005 29.869375 -21.51 30.42625 -21 31 C-21.66 31.33 -22.32 31.66 -23 32 C-25.26045805 30.03121396 -26.80271461 28.45622246 -28 25.6875 C-28 21.63675616 -26.48776915 19.04972716 -24 16 C-17.94897076 10.12285091 -11.02809913 6.15791776 -3.58984375 2.34765625 C-1.13497811 1.23526467 -1.13497811 1.23526467 0 0 Z M-14 13 C-14 13.99 -14 14.98 -14 16 C-13.34 15.01 -12.68 14.02 -12 13 C-12.66 13 -13.32 13 -14 13 Z " fill="#AD7D85" transform="translate(43,64)"/>
<path d="M0 0 C1.57226285 2.87108869 2.24352423 4.85073654 1.5546875 8.1015625 C0.19900733 12.02589983 -0.42763523 13.61842348 -4 16 C-4 14.68 -4 13.36 -4 12 C-3.34 12 -2.68 12 -2 12 C-2.11306697 10.04105639 -2.11306697 10.04105639 -3 8 C-5.49034386 6.70339566 -5.49034386 6.70339566 -8 6 C-8.33 6.99 -8.66 7.98 -9 9 C-9.99 9 -10.98 9 -12 9 C-11.690625 8.401875 -11.38125 7.80375 -11.0625 7.1875 C-9.89790296 4.91043228 -9.89790296 4.91043228 -9 2 C-10.99616554 0.00383446 -14.81701963 0.59016573 -17.5625 0.4375 C-18.27341797 0.39431641 -18.98433594 0.35113281 -19.71679688 0.30664062 C-21.47761912 0.20028223 -23.2387832 0.09961154 -25 0 C-18.28722838 -4.47518108 -6.90008231 -4.23146073 0 0 Z " fill="#474647" transform="translate(130,33)"/>
<path d="M0 0 C0.66 0 1.32 0 2 0 C1.01 2.97 0.02 5.94 -1 9 C-0.01 9 0.98 9 2 9 C1.77734375 11.32421875 1.77734375 11.32421875 1 14 C-0.99609375 15.58203125 -0.99609375 15.58203125 -3.4375 16.8125 C-4.64212891 17.44091797 -4.64212891 17.44091797 -5.87109375 18.08203125 C-8 19 -8 19 -10 19 C-10 19.66 -10 20.32 -10 21 C-11.65 21 -13.3 21 -15 21 C-14.505 19.515 -14.505 19.515 -14 18 C-13.34 17.67 -12.68 17.34 -12 17 C-11.27585209 15.02505115 -10.55388363 13.04922197 -9.8515625 11.06640625 C-8.17622414 7.00102097 -5.14708857 3.98973414 -2 1 C-2.33 2.32 -2.66 3.64 -3 5 C-1.55802132 3.55802132 -0.88213756 1.82308429 0 0 Z " fill="#AA091E" transform="translate(55,49)"/>
<path d="M0 0 C9.9 0 19.8 0 30 0 C30 3.3 30 6.6 30 10 C29.34 10 28.68 10 28 10 C27 8 27 8 27 2 C18.42 2 9.84 2 1 2 C1 3.32 1 4.64 1 6 C6.94 6 12.88 6 19 6 C19 6.66 19 7.32 19 8 C12.73 8 6.46 8 0 8 C0 5.36 0 2.72 0 0 Z " fill="#910A1F" transform="translate(32,43)"/>
<path d="M0 0 C1.65 0.33 3.3 0.66 5 1 C4.67 2.65 4.34 4.3 4 6 C10.6 6.33 17.2 6.66 24 7 C24 4.69 24 2.38 24 0 C24.33 0 24.66 0 25 0 C25 2.64 25 5.28 25 8 C14.11 8 3.22 8 -8 8 C-7.67 7.01 -7.34 6.02 -7 5 C-7.66 4.67 -8.32 4.34 -9 4 C-9 3.34 -9 2.68 -9 2 C-6.03 2 -3.06 2 0 2 C0 1.34 0 0.68 0 0 Z " fill="#2F302E" transform="translate(39,88)"/>
<path d="M0 0 C1.88391785 3.26545761 2.49287967 6.28111761 3 10 C0.75 11.125 0.75 11.125 -2 12 C-4.3125 11.125 -4.3125 11.125 -6 10 C-6 10.99 -6 11.98 -6 13 C-6.99 13.33 -7.98 13.66 -9 14 C-9 13.34 -9 12.68 -9 12 C-8.34 12 -7.68 12 -7 12 C-7.33 11.34 -7.66 10.68 -8 10 C-10.02463255 9.34786708 -10.02463255 9.34786708 -12 9 C-8.60750339 5.30816545 -5.55763348 3.07165158 -1 1 C-0.67 0.67 -0.34 0.34 0 0 Z " fill="#343535" transform="translate(104,55)"/>
<path d="M0 0 C0.33 0 0.66 0 1 0 C1 4.62 1 9.24 1 14 C-14.51 14 -30.02 14 -46 14 C-46.33 13.34 -46.66 12.68 -47 12 C-49.01669827 10.86649466 -49.01669827 10.86649466 -51 10 C-48.36 10 -45.72 10 -43 10 C-43.33 10.99 -43.66 11.98 -44 13 C-33.11 13 -22.22 13 -11 13 C-11 10.03 -11 7.06 -11 4 C-10.34 4 -9.68 4 -9 4 C-9 6.97 -9 9.94 -9 13 C-6.03 13 -3.06 13 0 13 C0 8.71 0 4.42 0 0 Z " fill="#8E8E8E" transform="translate(75,83)"/>
<path d="M0 0 C0.66 0 1.32 0 2 0 C2.12117188 0.63808594 2.24234375 1.27617188 2.3671875 1.93359375 C2.53476563 2.75988281 2.70234375 3.58617188 2.875 4.4375 C3.03742188 5.26121094 3.19984375 6.08492188 3.3671875 6.93359375 C3.57601562 7.61550781 3.78484375 8.29742187 4 9 C4.66 9.33 5.32 9.66 6 10 C6.33 9.01 6.66 8.02 7 7 C7.66 6.67 8.32 6.34 9 6 C8.21824485 10.84688192 6.60155722 15.3766367 5 20 C3.5 18.75 3.5 18.75 2 17 C2 15.68 2 14.36 2 13 C1.01 13.33 0.02 13.66 -1 14 C-1.66 13.67 -2.32 13.34 -3 13 C-3 12.01 -3 11.02 -3 10 C-2.34 10 -1.68 10 -1 10 C-0.67 6.7 -0.34 3.4 0 0 Z M-3 14 C-2.34 14 -1.68 14 -1 14 C-1 14.66 -1 15.32 -1 16 C-1.66 16 -2.32 16 -3 16 C-3 15.34 -3 14.68 -3 14 Z " fill="#555455" transform="translate(96,71)"/>
<path d="M0 0 C4.62 0 9.24 0 14 0 C13.67 1.32 13.34 2.64 13 4 C11.68 4.33 10.36 4.66 9 5 C9 4.01 9 3.02 9 2 C7.02 2 5.04 2 3 2 C2.93941406 3.27875 2.87882812 4.5575 2.81640625 5.875 C2.73192784 7.5833411 2.64728359 9.29167401 2.5625 11 C2.52318359 11.83917969 2.48386719 12.67835937 2.44335938 13.54296875 C2.18148668 18.74013458 1.7100648 23.84457153 1 29 C0.67 29 0.34 29 0 29 C0 19.43 0 9.86 0 0 Z " fill="#920D20" transform="translate(66,43)"/>
<path d="M0 0 C3 1 3 1 5 3 C7.65537372 3.56520003 10.29144713 3.73788198 13 4 C13.93423645 7.01031744 14.04449911 7.86650268 13 11 C9.7 11 6.4 11 3 11 C0 3.375 0 3.375 0 0 Z " fill="#515151" transform="translate(86,86)"/>
<path d="M0 0 C0.33 0 0.66 0 1 0 C1 2.31 1 4.62 1 7 C1.66 7.33 2.32 7.66 3 8 C-12.14624506 16 -12.14624506 16 -20 16 C-19.50168276 12.31245243 -18.89932357 10.39509338 -16 8 C-16.33 9.32 -16.66 10.64 -17 12 C-14.87434778 11.35631658 -12.74949654 10.70998756 -10.625 10.0625 C-9.44164062 9.70285156 -8.25828125 9.34320313 -7.0390625 8.97265625 C-4.12073182 8.12423726 -4.12073182 8.12423726 -2 7 C-1.26924352 4.6859378 -0.59861742 2.35171131 0 0 Z " fill="#BD999E" transform="translate(65,68)"/>
<path d="M0 0 C0.99 0 1.98 0 3 0 C3.061875 0.78375 3.12375 1.5675 3.1875 2.375 C3.455625 3.24125 3.72375 4.1075 4 5 C6.47636012 6.37466625 6.47636012 6.37466625 9 7 C5.93467184 9.04355211 4.61645311 9.38658825 1.0625 9.75 C0.20785156 9.84796875 -0.64679687 9.9459375 -1.52734375 10.046875 C-4.23766556 9.99549449 -5.70187794 9.38633814 -8 8 C-7.01 7.67 -6.02 7.34 -5 7 C-3.61521967 5.23947135 -2.47160626 3.39227023 -1.28125 1.49609375 C-0.8584375 1.00238281 -0.435625 0.50867188 0 0 Z " fill="#A12C3D" transform="translate(36,77)"/>
<path d="M0 0 C-0.99 2.97 -1.98 5.94 -3 9 C-4.32 8.34 -5.64 7.68 -7 7 C-7 6.34 -7 5.68 -7 5 C-7.68707031 5.03480469 -8.37414062 5.06960937 -9.08203125 5.10546875 C-9.98308594 5.13253906 -10.88414063 5.15960938 -11.8125 5.1875 C-12.70582031 5.22230469 -13.59914063 5.25710937 -14.51953125 5.29296875 C-17.41647515 4.95081002 -18.22555028 4.24606427 -20 2 C-17.04335481 0.5216774 -14.25770263 0.93967217 -11 1 C-11 1.66 -11 2.32 -11 3 C-9.68 3 -8.36 3 -7 3 C-6.67 2.01 -6.34 1.02 -6 0 C-3 -1 -3 -1 0 0 Z " fill="#30312F" transform="translate(92,74)"/>
<path d="M0 0 C5.94 0 11.88 0 18 0 C17.34 1.32 16.68 2.64 16 4 C10.72 4 5.44 4 0 4 C0 2.68 0 1.36 0 0 Z " fill="#B5041C" transform="translate(33,45)"/>
<path d="M0 0 C0 3.72207387 -1.17964568 5.46395589 -3 8.6875 C-3.8353125 10.17830078 -3.8353125 10.17830078 -4.6875 11.69921875 C-5.120625 12.45847656 -5.55375 13.21773437 -6 14 C-6.33 12.68 -6.66 11.36 -7 10 C-8.98 10.33 -10.96 10.66 -13 11 C-12.0399928 7.60527573 -11.34538367 6.23907188 -8.3984375 4.19921875 C-7.40070312 3.70035156 -6.40296875 3.20148438 -5.375 2.6875 C-4.37210938 2.17574219 -3.36921875 1.66398437 -2.3359375 1.13671875 C-1.17964844 0.57404297 -1.17964844 0.57404297 0 0 Z " fill="#A7525D" transform="translate(56,62)"/>
<path d="M0 0 C0.33 0 0.66 0 1 0 C1 1.65 1 3.3 1 5 C3.475 5.99 3.475 5.99 6 7 C3.37801226 9.15377564 1.35595828 10.40072174 -2 11 C-2 11.66 -2 12.32 -2 13 C-3.65 13 -5.3 13 -7 13 C-6.67 12.01 -6.34 11.02 -6 10 C-5.34 9.67 -4.68 9.34 -4 9 C-3.13234482 7.14985526 -3.13234482 7.14985526 -2.4375 5 C-1.08991826 1.08991826 -1.08991826 1.08991826 0 0 Z " fill="#941D2D" transform="translate(47,57)"/>
<path d="M0 0 C2 1 2 1 3.625 2 C7.0281371 3.43289983 10.33128223 3.58578993 14 4 C14.66 4.33 15.32 4.66 16 5 C15.67 6.98 15.34 8.96 15 11 C13 7.25 13 7.25 13 5 C12.11248047 5.37705078 12.11248047 5.37705078 11.20703125 5.76171875 C4.67238422 8.28816467 4.67238422 8.28816467 0.9375 6.6875 C0.298125 6.130625 -0.34125 5.57375 -1 5 C-0.67 3.35 -0.34 1.7 0 0 Z " fill="#504F4E" transform="translate(71,75)"/>
<path d="M0 0 C0.75 1.75 0.75 1.75 1 4 C-0.625 6.25 -0.625 6.25 -3 8 C-5.75 8.25 -5.75 8.25 -8 8 C-8.89674777 5.48910624 -9.13172674 4.35464891 -8.1875 1.8125 C-5.85184748 -1.75244332 -3.76589125 -0.89192161 0 0 Z " fill="#B09497" transform="translate(114,42)"/>
<path d="M0 0 C0 3 0 3 -1.5 4.6875 C-1.995 5.120625 -2.49 5.55375 -3 6 C-2.34 6.33 -1.68 6.66 -1 7 C-2.24460783 7.67667998 -3.49596896 8.34094719 -4.75 9 C-5.79414062 9.556875 -5.79414062 9.556875 -6.859375 10.125 C-9 11 -9 11 -13 11 C-12.06046385 7.80020831 -11.48345621 6.31855018 -8.65234375 4.453125 C-7.75644531 4.05609375 -6.86054687 3.6590625 -5.9375 3.25 C-2.73921263 1.9693693 -2.73921263 1.9693693 0 0 Z " fill="#A45968" transform="translate(43,64)"/>
<path d="M0 0 C-0.99 0.33 -1.98 0.66 -3 1 C-2.67 2.98 -2.34 4.96 -2 7 C-2.99 7 -3.98 7 -5 7 C-5.33 5.68 -5.66 4.36 -6 3 C-10.95 2.67 -15.9 2.34 -21 2 C-14.69594653 -2.20270232 -7.19646082 -1.02806583 0 0 Z " fill="#8F8F90" transform="translate(126,31)"/>
<path d="M0 0 C0.66 1.32 1.32 2.64 2 4 C2.66 4 3.32 4 4 4 C2.7508258 7.45925163 1.32472205 10.14693203 -1 13 C-1 11.68 -1 10.36 -1 9 C-1.99 9.33 -2.98 9.66 -4 10 C-4.33 9.34 -4.66 8.68 -5 8 C-4.34 8 -3.68 8 -3 8 C-3 6.35 -3 4.7 -3 3 C-2.01 2.67 -1.02 2.34 0 2 C0 1.34 0 0.68 0 0 Z " fill="#AE071E" transform="translate(58,49)"/>
<path d="M0 0 C1.98 0.495 1.98 0.495 4 1 C3.01 1.33 2.02 1.66 1 2 C1 4.64 1 7.28 1 10 C7.27 10 13.54 10 20 10 C19.34 11.65 18.68 13.3 18 15 C17.34 14.01 16.68 13.02 16 12 C13.2114711 11.77892213 10.65346819 11.71892465 7.875 11.8125 C7.12089844 11.82603516 6.36679687 11.83957031 5.58984375 11.85351562 C3.72625873 11.88890015 1.86304022 11.94270833 0 12 C-1.00514676 7.68903724 -0.77146759 4.37164968 0 0 Z " fill="#C2919A" transform="translate(31,41)"/>
<path d="M0 0 C0.66 0.33 1.32 0.66 2 1 C2 5.62 2 10.24 2 15 C-4.5 19 -4.5 19 -9 19 C-8.67 17.68 -8.34 16.36 -8 15 C-5.36 14.67 -2.72 14.34 0 14 C0 9.38 0 4.76 0 0 Z " fill="#B0565F" transform="translate(75,56)"/>
<path d="M0 0 C1.98 0.66 3.96 1.32 6 2 C6 3.32 6 4.64 6 6 C4.68 6 3.36 6 2 6 C1.67 6.66 1.34 7.32 1 8 C1 7.34 1 6.68 1 6 C-0.65 6.33 -2.3 6.66 -4 7 C-3.67 5.35 -3.34 3.7 -3 2 C-2.34 2 -1.68 2 -1 2 C-0.67 1.34 -0.34 0.68 0 0 Z " fill="#323333" transform="translate(122,39)"/>
<path d="M0 0 C1.98 0 3.96 0 6 0 C6 3.01490557 5.48047265 4.86864114 4.5 7.6875 C4.08234375 8.89986328 4.08234375 8.89986328 3.65625 10.13671875 C3.4396875 10.75160156 3.223125 11.36648437 3 12 C1.4765625 10.6171875 1.4765625 10.6171875 0 9 C0.375 7.125 0.375 7.125 1 5 C0.61432869 2.31850007 0.61432869 2.31850007 0 0 Z " fill="#484848" transform="translate(105,59)"/>
<path d="M0 0 C0.66 1.32 1.32 2.64 2 4 C1.34 4 0.68 4 0 4 C0.309375 5.1446875 0.309375 5.1446875 0.625 6.3125 C1 9 1 9 -1 12 C-1.99 12 -2.98 12 -4 12 C-4.33 10.35 -4.66 8.7 -5 7 C-4.34 6.67 -3.68 6.34 -3 6 C-1.95191959 4.02477154 -0.9479589 2.02518491 0 0 Z " fill="#3C3C3C" transform="translate(91,76)"/>
<path d="M0 0 C1.1875 1.5 1.1875 1.5 2 4 C1.01045645 8.55190031 -0.07055575 11.3803705 -4 14 C-4 12.68 -4 11.36 -4 10 C-3.34 10 -2.68 10 -2 10 C-2.27617533 8.05925139 -2.27617533 8.05925139 -3 6 C-3.99 5.34 -4.98 4.68 -6 4 C-4.7934375 3.566875 -4.7934375 3.566875 -3.5625 3.125 C-0.8673532 2.26737432 -0.8673532 2.26737432 0 0 Z " fill="#626162" transform="translate(130,35)"/>
<path d="M0 0 C1 2 1 2 1 4 C1.5775 3.814375 2.155 3.62875 2.75 3.4375 C5.20692525 2.95976454 6.64397534 3.24270636 9 4 C8.34 4 7.68 4 7 4 C7 4.66 7 5.32 7 6 C3.38026598 7.31626692 0.90432869 8 -3 8 C-2.45276317 4.62537285 -1.9451 2.91765 0 0 Z " fill="#B68A93" transform="translate(48,76)"/>
<path d="M0 0 C2.475 0.99 2.475 0.99 5 2 C5 1.34 5 0.68 5 0 C5.66 0 6.32 0 7 0 C6.34 2.31 5.68 4.62 5 7 C2.625 6.75 2.625 6.75 0 6 C-1.3125 3.9375 -1.3125 3.9375 -2 2 C-1.34 1.34 -0.68 0.68 0 0 Z " fill="#A00E21" transform="translate(40,77)"/>
<path d="M0 0 C0.66 0 1.32 0 2 0 C0.90092392 2.56451085 -0.0984449 4.09554946 -2.125 6.0625 C-4.34771071 7.90993327 -4.34771071 7.90993327 -4 11 C-4.66 11 -5.32 11 -6 11 C-6.33 10.01 -6.66 9.02 -7 8 C-7.66 8.66 -8.32 9.32 -9 10 C-9 7 -9 7 -7.8125 5.5 C-5.6742542 3.73041727 -3.39915293 2.38898327 -1 1 C-0.67 0.67 -0.34 0.34 0 0 Z " fill="#918C89" transform="translate(31,77)"/>
<path d="M0 0 C0.66 0.33 1.32 0.66 2 1 C2 1.33 2 1.66 2 2 C2.99 2.33 3.98 2.66 5 3 C5 3.66 5 4.32 5 5 C4.34 5 3.68 5 3 5 C3.33 5.99 3.66 6.98 4 8 C3.01 8 2.02 8 1 8 C0.67 7.34 0.34 6.68 0 6 C-0.66 6 -1.32 6 -2 6 C-2 5.34 -2 4.68 -2 4 C-2.66 3.67 -3.32 3.34 -4 3 C-2.68 2.01 -1.36 1.02 0 0 Z " fill="#4E4C4E" transform="translate(92,62)"/>
<path d="M0 0 C0.66 0 1.32 0 2 0 C2 0.66 2 1.32 2 2 C1.34 2 0.68 2 0 2 C0 2.66 0 3.32 0 4 C1.32 4 2.64 4 4 4 C3.67 5.98 3.34 7.96 3 10 C2.01 9.67 1.02 9.34 0 9 C-0.87890625 2.84765625 -0.87890625 2.84765625 -1 1 C-0.67 0.67 -0.34 0.34 0 0 Z " fill="#313131" transform="translate(99,71)"/>
<path d="M0 0 C-1.125 2.5 -1.125 2.5 -3 5 C-6.1875 5.3125 -6.1875 5.3125 -9 5 C-9.33 4.34 -9.66 3.68 -10 3 C-3.375 -1.125 -3.375 -1.125 0 0 Z " fill="#5B575B" transform="translate(83,71)"/>
<path d="M0 0 C0 3.10551666 -0.5393715 4.35261084 -2 7 C-2.33 6.34 -2.66 5.68 -3 5 C-4.98 5.99 -6.96 6.98 -9 8 C-9.66 7.34 -10.32 6.68 -11 6 C-7.37 4.02 -3.74 2.04 0 0 Z " fill="#DA9197" transform="translate(56,62)"/>
<path d="M0 0 C-0.99 0.495 -0.99 0.495 -2 1 C-2 1.66 -2 2.32 -2 3 C-1.01 3.33 -0.02 3.66 1 4 C-0.66611905 4.042721 -2.33382885 4.04063832 -4 4 C-4.33 3.67 -4.66 3.34 -5 3 C-6.51469448 2.76807135 -8.03754562 2.58784762 -9.5625 2.4375 C-10.38878906 2.35371094 -11.21507812 2.26992187 -12.06640625 2.18359375 C-12.70449219 2.12300781 -13.34257812 2.06242187 -14 2 C-14 1.67 -14 1.34 -14 1 C-4.58997722 -0.14806378 -4.58997722 -0.14806378 0 0 Z " fill="#69726C" transform="translate(41,87)"/>
<path d="M0 0 C0.66 0.33 1.32 0.66 2 1 C2 1.33 2 1.66 2 2 C3.29269732 5.13449212 3.29269732 5.13449212 6 7 C4.68 7 3.36 7 2 7 C2 6.34 2 5.68 2 5 C-0.97 4.505 -0.97 4.505 -4 4 C-2.68 2.68 -1.36 1.36 0 0 Z " fill="#535250" transform="translate(86,66)"/>
<path d="M0 0 C2.12508244 3.18762365 2.5020163 5.26512223 3 9 C2.01 9.33 1.02 9.66 0 10 C-1.66710346 11.49985609 -1.66710346 11.49985609 -3 13 C-2.48923856 10.70157352 -1.86166565 8.67450741 -0.9375 6.5 C0.23408229 3.82078074 0.23408229 3.82078074 0 0 Z " fill="#871326" transform="translate(83,55)"/>
<path d="M0 0 C0.33 0.99 0.66 1.98 1 3 C3.64 3.33 6.28 3.66 9 4 C9 4.33 9 4.66 9 5 C7.41870971 5.22331199 5.83478911 5.42804644 4.25 5.625 C2.92742188 5.79902344 2.92742188 5.79902344 1.578125 5.9765625 C-1.22859878 6.00207817 -2.63384866 5.44843844 -5 4 C-4.01 3.67 -3.02 3.34 -2 3 C-1.34 2.01 -0.68 1.02 0 0 Z " fill="#C08F98" transform="translate(33,81)"/>
<path d="M0 0 C0.66 0 1.32 0 2 0 C2 0.66 2 1.32 2 2 C2.99 1.67 3.98 1.34 5 1 C5.33 1.99 5.66 2.98 6 4 C5.34 4 4.68 4 4 4 C4 4.66 4 5.32 4 6 C3.34 6 2.68 6 2 6 C1.34 5.01 0.68 4.02 0 3 C-0.99 3.495 -0.99 3.495 -2 4 C-1.34 2.68 -0.68 1.36 0 0 Z " fill="#2D2F2D" transform="translate(88,66)"/>
<path d="M0 0 C4.62 0 9.24 0 14 0 C13.34 1.65 12.68 3.3 12 5 C11.34 4.01 10.68 3.02 10 2 C7.57478506 1.41810734 7.57478506 1.41810734 4.875 1.3125 C3.96492188 1.24675781 3.05484375 1.18101563 2.1171875 1.11328125 C1.41851562 1.07589844 0.71984375 1.03851563 0 1 C0 0.67 0 0.34 0 0 Z " fill="#D18C91" transform="translate(37,51)"/>
<path d="M0 0 C-0.33 1.65 -0.66 3.3 -1 5 C-1.598125 4.67 -2.19625 4.34 -2.8125 4 C-5.05386471 2.79212012 -5.05386471 2.79212012 -8 3 C-4.93882432 0.37613513 -4.26826873 0 0 0 Z " fill="#921028" transform="translate(49,72)"/>
<path d="M0 0 C0 1.65 0 3.3 0 5 C-0.66 5 -1.32 5 -2 5 C-2.33 5.66 -2.66 6.32 -3 7 C-3 5.68 -3 4.36 -3 3 C-3.66 3 -4.32 3 -5 3 C-5 2.34 -5 1.68 -5 1 C-2 0 -2 0 0 0 Z " fill="#3D3D3D" transform="translate(106,72)"/>
<path d="M0 0 C0.33 0 0.66 0 1 0 C1 1.65 1 3.3 1 5 C1.66 5.33 2.32 5.66 3 6 C2.34 6.66 1.68 7.32 1 8 C1 7.34 1 6.68 1 6 C-0.32 6.33 -1.64 6.66 -3 7 C-1.125 1.125 -1.125 1.125 0 0 Z " fill="#B24153" transform="translate(47,57)"/>
<path d="M0 0 C0 3.69418201 -1.28179295 5.77836178 -3 9 C-3.33 9 -3.66 9 -4 9 C-4 6.69 -4 4.38 -4 2 C-2.68 1.34 -1.36 0.68 0 0 Z " fill="#BB5E6B" transform="translate(61,53)"/>
<path d="M0 0 C0.66 0 1.32 0 2 0 C2.1875 2.375 2.1875 2.375 2 5 C1.01 5.66 0.02 6.32 -1 7 C-1.66 6.67 -2.32 6.34 -3 6 C-2.67 5.01 -2.34 4.02 -2 3 C-1.34 3 -0.68 3 0 3 C0 2.01 0 1.02 0 0 Z " fill="#454545" transform="translate(124,45)"/>
<path d="M0 0 C4 4.625 4 4.625 4 8 C2.0625 7.25 2.0625 7.25 0 6 C-0.8125 4 -0.8125 4 -1 2 C-0.67 1.34 -0.34 0.68 0 0 Z " fill="#D4CBD1" transform="translate(17,88)"/>
<path d="M0 0 C1.5 1.1875 1.5 1.1875 3 3 C3.1875 5.6875 3.1875 5.6875 3 8 C1.68 7.01 0.36 6.02 -1 5 C-0.67 3.35 -0.34 1.7 0 0 Z " fill="#757D78" transform="translate(20,86)"/>
<path d="M0 0 C2 2 2 2 2.125 4.625 C2.08375 5.40875 2.0425 6.1925 2 7 C1.01 7.33 0.02 7.66 -1 8 C-1 7.34 -1 6.68 -1 6 C-0.34 6 0.32 6 1 6 C0.67 5.34 0.34 4.68 0 4 C-2.02463255 3.34786708 -2.02463255 3.34786708 -4 3 C-2.68 2.01 -1.36 1.02 0 0 Z " fill="#282B2C" transform="translate(96,61)"/>
<path d="M0 0 C0.33 0 0.66 0 1 0 C1.3125 2.25 1.3125 2.25 1 5 C-1.3125 7.3125 -1.3125 7.3125 -4 9 C-4.99 9 -5.98 9 -7 9 C-5.90809958 6.81619917 -4.8590123 5.57301041 -3 4 C-2.01 4 -1.02 4 0 4 C0 2.68 0 1.36 0 0 Z " fill="#C3838F" transform="translate(86,60)"/>
<path d="M0 0 C1 2 1 2 1 5 C-1 7.1875 -1 7.1875 -3 9 C-3.33 8.01 -3.66 7.02 -4 6 C-2.0625 2.8125 -2.0625 2.8125 0 0 Z " fill="#920E1C" transform="translate(52,50)"/>
<path d="M0 0 C0 1.65 0 3.3 0 5 C-2.31 5 -4.62 5 -7 5 C-2.16129032 0 -2.16129032 0 0 0 Z " fill="#565A58" transform="translate(101,57)"/>
<path d="M0 0 C2.31 0 4.62 0 7 0 C7.33 0.66 7.66 1.32 8 2 C5.03 2 2.06 2 -1 2 C-0.67 1.34 -0.34 0.68 0 0 Z " fill="#C5C5C5" transform="translate(99,146)"/>
<path d="M0 0 C1.65 0 3.3 0 5 0 C5 0.66 5 1.32 5 2 C3.02 2 1.04 2 -1 2 C-0.67 1.34 -0.34 0.68 0 0 Z " fill="#BDBDBD" transform="translate(109,146)"/>
<path d="M0 0 C0.66 0.99 1.32 1.98 2 3 C1.01 3 0.02 3 -1 3 C-0.67 2.01 -0.34 1.02 0 0 Z " fill="#D8D8D8" transform="translate(36,145)"/>
<path d="M0 0 C0.33 0.66 0.66 1.32 1 2 C0.34 1.67 -0.32 1.34 -1 1 C-0.67 0.67 -0.34 0.34 0 0 Z " fill="#D4D4D4" transform="translate(116,146)"/>
</svg>
