<svg width="19" height="52" viewBox="0 0 19 52" fill="none" xmlns="http://www.w3.org/2000/svg">
<g opacity="0.1">
<mask id="path-1-outside-1_1_20" maskUnits="userSpaceOnUse" x="0" y="0" width="19" height="52" fill="black">
<rect fill="white" width="19" height="52"/>
<path d="M1.448 10.2V1.428H17.836V51H8.044V10.2H1.448Z"/>
</mask>
<path d="M1.448 10.2H0.448V11.2H1.448V10.2ZM1.448 1.428V0.427998H0.448V1.428H1.448ZM17.836 1.428H18.836V0.427998H17.836V1.428ZM17.836 51V52H18.836V51H17.836ZM8.044 51H7.044V52H8.044V51ZM8.044 10.2H9.044V9.2H8.044V10.2ZM2.448 10.2V1.428H0.448V10.2H2.448ZM1.448 2.428H17.836V0.427998H1.448V2.428ZM16.836 1.428V51H18.836V1.428H16.836ZM17.836 50H8.044V52H17.836V50ZM9.044 51V10.2H7.044V51H9.044ZM8.044 9.2H1.448V11.2H8.044V9.2Z" fill="white" mask="url(#path-1-outside-1_1_20)"/>
</g>
</svg>
