<svg width="37" height="53" viewBox="0 0 37 53" fill="none" xmlns="http://www.w3.org/2000/svg">
<mask id="path-1-outside-1_1_28" maskUnits="userSpaceOnUse" x="0" y="0" width="37" height="53" fill="black">
<rect fill="white" width="37" height="53"/>
<path d="M5.596 41.256C9.948 37.6293 13.416 34.6147 16 32.212C18.584 29.764 20.7373 27.2253 22.46 24.596C24.1827 21.9667 25.044 19.3827 25.044 16.844C25.044 14.532 24.5 12.7187 23.412 11.404C22.324 10.0893 20.6467 9.432 18.38 9.432C16.1133 9.432 14.368 10.2027 13.144 11.744C11.92 13.24 11.2853 15.3027 11.24 17.932H1.992C2.17333 12.492 3.78267 8.36666 6.82 5.556C9.90267 2.74533 13.8013 1.34 18.516 1.34C23.684 1.34 27.6507 2.72266 30.416 5.488C33.1813 8.208 34.564 11.812 34.564 16.3C34.564 19.836 33.612 23.2133 31.708 26.432C29.804 29.6507 27.628 32.4613 25.18 34.864C22.732 37.2213 19.536 40.0773 15.592 43.432H35.652V51.32H2.06V44.248L5.596 41.256Z"/>
</mask>
<path d="M5.596 41.256L4.9558 40.4878L4.95006 40.4926L5.596 41.256ZM16 32.212L16.681 32.9444L16.6877 32.938L16 32.212ZM22.46 24.596L23.2965 25.144L22.46 24.596ZM23.412 11.404L22.6416 12.0416L23.412 11.404ZM13.144 11.744L13.918 12.3772L13.9226 12.3716L13.9271 12.3659L13.144 11.744ZM11.24 17.932V18.932H12.2229L12.2399 17.9492L11.24 17.932ZM1.992 17.932L0.992555 17.8987L0.958112 18.932H1.992V17.932ZM6.82 5.556L6.14623 4.81702L6.14081 4.82203L6.82 5.556ZM30.416 5.488L29.7089 6.19513L29.7148 6.20093L30.416 5.488ZM31.708 26.432L32.5687 26.9411L31.708 26.432ZM25.18 34.864L25.8737 35.5844L25.8805 35.5777L25.18 34.864ZM15.592 43.432L14.9441 42.6703L12.8729 44.432H15.592V43.432ZM35.652 43.432H36.652V42.432H35.652V43.432ZM35.652 51.32V52.32H36.652V51.32H35.652ZM2.06 51.32H1.06V52.32H2.06V51.32ZM2.06 44.248L1.41406 43.4846L1.06 43.7842V44.248H2.06ZM6.23618 42.0242C10.5949 38.392 14.0782 35.3644 16.6809 32.9443L15.3191 31.4797C12.7538 33.8649 9.30113 36.8667 4.95582 40.4878L6.23618 42.0242ZM16.6877 32.938C19.3208 30.4435 21.5261 27.8461 23.2965 25.144L21.6235 24.048C19.9485 26.6045 17.8472 29.0845 15.3123 31.486L16.6877 32.938ZM23.2965 25.144C25.1003 22.3907 26.044 19.6192 26.044 16.844H24.044C24.044 19.1461 23.265 21.5426 21.6235 24.048L23.2965 25.144ZM26.044 16.844C26.044 14.3818 25.4641 12.3151 24.1824 10.7664L22.6416 12.0416C23.5359 13.1222 24.044 14.6822 24.044 16.844H26.044ZM24.1824 10.7664C22.8466 9.15237 20.8402 8.432 18.38 8.432V10.432C20.4531 10.432 21.8014 11.0263 22.6416 12.0416L24.1824 10.7664ZM18.38 8.432C15.8604 8.432 13.8048 9.30386 12.3609 11.1221L13.9271 12.3659C14.9312 11.1015 16.3663 10.432 18.38 10.432V8.432ZM12.37 11.1108C10.9599 12.8343 10.288 15.141 10.2401 17.9148L12.2399 17.9492C12.2827 15.4644 12.8801 13.6457 13.918 12.3772L12.37 11.1108ZM11.24 16.932H1.992V18.932H11.24V16.932ZM2.99145 17.9653C3.1668 12.7047 4.71398 8.86732 7.49919 6.28996L6.14081 4.82203C2.85136 7.86601 1.17987 12.2793 0.992555 17.8987L2.99145 17.9653ZM7.49375 6.29495C10.368 3.67434 14.0157 2.34 18.516 2.34V0.339996C13.5869 0.339996 9.43736 1.81632 6.14625 4.81704L7.49375 6.29495ZM18.516 2.34C23.5071 2.34 27.1855 3.6717 29.7089 6.1951L31.1231 4.78089C28.1158 1.77362 23.8609 0.339996 18.516 0.339996V2.34ZM29.7148 6.20093C32.2587 8.70315 33.564 12.0344 33.564 16.3H35.564C35.564 11.5896 34.104 7.71285 31.1172 4.77507L29.7148 6.20093ZM33.564 16.3C33.564 19.6464 32.6656 22.8491 30.8473 25.9229L32.5687 26.9411C34.5584 23.5775 35.564 20.0256 35.564 16.3H33.564ZM30.8473 25.9229C28.9836 29.0734 26.8601 31.8138 24.4795 34.1503L25.8805 35.5777C28.3959 33.1089 30.6244 30.228 32.5687 26.9411L30.8473 25.9229ZM24.4864 34.1437C22.0587 36.4814 18.8796 39.3228 14.9441 42.6703L16.2399 44.1937C20.1924 40.8318 23.4053 37.9612 25.8736 35.5843L24.4864 34.1437ZM15.592 44.432H35.652V42.432H15.592V44.432ZM34.652 43.432V51.32H36.652V43.432H34.652ZM35.652 50.32H2.06V52.32H35.652V50.32ZM3.06 51.32V44.248H1.06V51.32H3.06ZM2.70594 45.0114L6.24194 42.0194L4.95006 40.4926L1.41406 43.4846L2.70594 45.0114Z" fill="white" mask="url(#path-1-outside-1_1_28)"/>
</svg>
