<svg width="36" height="54" viewBox="0 0 36 54" fill="none" xmlns="http://www.w3.org/2000/svg">
<mask id="path-1-outside-1_1_17" maskUnits="userSpaceOnUse" x="0" y="0" width="36" height="54" fill="black">
<rect fill="white" width="36" height="54"/>
<path d="M1.74 15.484C1.96667 10.9507 3.55333 7.46 6.5 5.012C9.492 2.51866 13.4133 1.272 18.264 1.272C21.5733 1.272 24.4067 1.86133 26.764 3.04C29.1213 4.17333 30.8893 5.73733 32.068 7.732C33.292 9.68133 33.904 11.9027 33.904 14.396C33.904 17.252 33.156 19.6773 31.66 21.672C30.2093 23.6213 28.464 24.936 26.424 25.616V25.888C29.0533 26.704 31.0933 28.1547 32.544 30.24C34.04 32.3253 34.788 35 34.788 38.264C34.788 40.984 34.1533 43.4093 32.884 45.54C31.66 47.6707 29.824 49.348 27.376 50.572C24.9733 51.7507 22.072 52.34 18.672 52.34C13.5493 52.34 9.37867 51.048 6.16 48.464C2.94133 45.88 1.24133 42.072 1.06 37.04H10.308C10.3987 39.2613 11.1467 41.052 12.552 42.412C14.0027 43.7267 15.9747 44.384 18.468 44.384C20.78 44.384 22.548 43.7493 23.772 42.48C25.0413 41.1653 25.676 39.488 25.676 37.448C25.676 34.728 24.8147 32.7787 23.092 31.6C21.3693 30.4213 18.6947 29.832 15.068 29.832H13.096V22.012H15.068C21.5053 22.012 24.724 19.8587 24.724 15.552C24.724 13.6027 24.1347 12.084 22.956 10.996C21.8227 9.908 20.168 9.364 17.992 9.364C15.8613 9.364 14.2067 9.95333 13.028 11.132C11.8947 12.2653 11.2373 13.716 11.056 15.484H1.74Z"/>
</mask>
<path d="M1.74 15.484L0.741248 15.4341L0.688751 16.484H1.74V15.484ZM6.5 5.012L7.13902 5.78119L7.14018 5.78022L6.5 5.012ZM26.764 3.04L26.3168 3.93443L26.3237 3.93789L26.3307 3.94125L26.764 3.04ZM32.068 7.732L31.2071 8.24073L31.2139 8.25234L31.2211 8.26377L32.068 7.732ZM31.66 21.672L30.86 21.072L30.8578 21.075L31.66 21.672ZM26.424 25.616L26.1078 24.6673L25.424 24.8952V25.616H26.424ZM26.424 25.888H25.424V26.6247L26.1276 26.8431L26.424 25.888ZM32.544 30.24L31.7231 30.8111L31.7272 30.817L31.7315 30.8229L32.544 30.24ZM32.884 45.54L32.0249 45.0282L32.0208 45.035L32.0169 45.0419L32.884 45.54ZM27.376 50.572L27.8164 51.4698L27.8232 51.4664L27.376 50.572ZM6.16 48.464L5.53397 49.2438L6.16 48.464ZM1.06 37.04V36.04H0.023315L0.0606487 37.076L1.06 37.04ZM10.308 37.04L11.3072 36.9992L11.268 36.04H10.308V37.04ZM12.552 42.412L11.8566 43.1306L11.8683 43.142L11.8805 43.153L12.552 42.412ZM23.772 42.48L23.0526 41.7854L23.0522 41.7859L23.772 42.48ZM13.096 29.832H12.096V30.832H13.096V29.832ZM13.096 22.012V21.012H12.096V22.012H13.096ZM22.956 10.996L22.2635 11.7174L22.2705 11.7242L22.2777 11.7308L22.956 10.996ZM13.028 11.132L13.7351 11.8391H13.7351L13.028 11.132ZM11.056 15.484V16.484H11.9587L12.0508 15.586L11.056 15.484ZM2.73875 15.5339C2.95426 11.2238 4.44746 8.01725 7.13902 5.78119L5.86098 4.24281C2.6592 6.90274 0.979077 10.6775 0.741248 15.4341L2.73875 15.5339ZM7.14018 5.78022C9.91175 3.47058 13.5881 2.272 18.264 2.272V0.271996C13.2385 0.271996 9.07226 1.56674 5.85982 4.24378L7.14018 5.78022ZM18.264 2.272C21.4568 2.272 24.1292 2.84064 26.3168 3.93443L27.2112 2.14557C24.6841 0.882017 21.6899 0.271996 18.264 0.271996V2.272ZM26.3307 3.94125C28.5336 5.00032 30.1416 6.43767 31.2071 8.24073L32.9289 7.22327C31.637 5.03699 29.7091 3.34634 27.1973 2.13875L26.3307 3.94125ZM31.2211 8.26377C32.3368 10.0405 32.904 12.0745 32.904 14.396H34.904C34.904 11.7308 34.2472 9.32214 32.9149 7.20023L31.2211 8.26377ZM32.904 14.396C32.904 17.0685 32.2078 19.275 30.86 21.072L32.46 22.272C34.1042 20.0797 34.904 17.4355 34.904 14.396H32.904ZM30.8578 21.075C29.5128 22.8823 27.9289 24.0603 26.1078 24.6673L26.7402 26.5647C28.9991 25.8117 30.9059 24.3604 32.4622 22.269L30.8578 21.075ZM25.424 25.616V25.888H27.424V25.616H25.424ZM26.1276 26.8431C28.5632 27.5989 30.4105 28.9242 31.7231 30.8111L33.3649 29.6689C31.7761 27.3851 29.5435 25.8091 26.7204 24.9329L26.1276 26.8431ZM31.7315 30.8229C33.076 32.6972 33.788 35.1521 33.788 38.264H35.788C35.788 34.8479 35.004 31.9535 33.3565 29.6571L31.7315 30.8229ZM33.788 38.264C33.788 40.8218 33.1932 43.0671 32.0249 45.0282L33.7431 46.0518C35.1134 43.7516 35.788 41.1462 35.788 38.264H33.788ZM32.0169 45.0419C30.9018 46.9829 29.2217 48.5311 26.9288 49.6776L27.8232 51.4664C30.4263 50.1649 32.4182 48.3584 33.7511 46.0381L32.0169 45.0419ZM26.9356 49.6742C24.7019 50.77 21.9594 51.34 18.672 51.34V53.34C22.1846 53.34 25.2447 52.7314 27.8164 51.4698L26.9356 49.6742ZM18.672 51.34C13.7207 51.34 9.78774 50.094 6.78603 47.6842L5.53397 49.2438C8.9696 52.002 13.378 53.34 18.672 53.34V51.34ZM6.78603 47.6842C3.84318 45.3216 2.23273 41.8152 2.05935 37.004L0.0606487 37.076C0.249937 42.3288 2.03949 46.4384 5.53397 49.2438L6.78603 47.6842ZM1.06 38.04H10.308V36.04H1.06V38.04ZM9.30883 37.0808C9.40842 39.5208 10.2412 41.5673 11.8566 43.1306L13.2474 41.6934C12.0522 40.5367 11.3889 39.0019 11.3072 36.9992L9.30883 37.0808ZM11.8805 43.153C13.5612 44.6762 15.7967 45.384 18.468 45.384V43.384C16.1527 43.384 14.4441 42.7772 13.2235 41.671L11.8805 43.153ZM18.468 45.384C20.9632 45.384 23.0258 44.6945 24.4918 43.1741L23.0522 41.7859C22.0702 42.8042 20.5968 43.384 18.468 43.384V45.384ZM24.4914 43.1746C25.9623 41.6512 26.676 39.7143 26.676 37.448H24.676C24.676 39.2617 24.1204 40.6795 23.0526 41.7854L24.4914 43.1746ZM26.676 37.448C26.676 34.5092 25.7323 32.1948 23.6567 30.7747L22.5273 32.4253C23.8971 33.3625 24.676 34.9468 24.676 37.448H26.676ZM23.6567 30.7747C21.6849 29.4256 18.7647 28.832 15.068 28.832V30.832C18.6246 30.832 21.0538 31.4171 22.5273 32.4253L23.6567 30.7747ZM15.068 28.832H13.096V30.832H15.068V28.832ZM14.096 29.832V22.012H12.096V29.832H14.096ZM13.096 23.012H15.068V21.012H13.096V23.012ZM15.068 23.012C18.3666 23.012 21.0158 22.466 22.8661 21.2281C24.7875 19.9427 25.724 17.9951 25.724 15.552H23.724C23.724 17.4155 23.0512 18.698 21.754 19.5658C20.3856 20.4813 18.2067 21.012 15.068 21.012V23.012ZM25.724 15.552C25.724 13.3884 25.0613 11.5784 23.6343 10.2612L22.2777 11.7308C23.2081 12.5896 23.724 13.8169 23.724 15.552H25.724ZM23.6485 10.2746C22.2672 8.94852 20.3255 8.364 17.992 8.364V10.364C20.0105 10.364 21.3781 10.8675 22.2635 11.7174L23.6485 10.2746ZM17.992 8.364C15.6735 8.364 13.7355 9.01028 12.3209 10.4249L13.7351 11.8391C14.6778 10.8964 16.0492 10.364 17.992 10.364V8.364ZM12.3209 10.4249C11.0071 11.7387 10.2633 13.4117 10.0612 15.382L12.0508 15.586C12.2114 14.0203 12.7823 12.7919 13.7351 11.8391L12.3209 10.4249ZM11.056 14.484H1.74V16.484H11.056V14.484Z" fill="white" mask="url(#path-1-outside-1_1_17)"/>
</svg>
