<svg width="26" height="26" viewBox="0 0 26 26" fill="none" xmlns="http://www.w3.org/2000/svg">
<path d="M26 13C26 11.1628 25.0684 9.54337 23.6515 8.58795C23.9776 6.91109 23.4912 5.10749 22.1924 3.8076C20.8936 2.50879 19.09 2.02241 17.4121 2.34847C16.4566 0.931589 14.8372 0 13 0C11.1628 0 9.54337 0.931589 8.58795 2.34847C6.91109 2.02241 5.10641 2.50879 3.8076 3.8076C2.50879 5.10641 2.02241 6.91001 2.34847 8.58795C0.931589 9.54337 0 11.1628 0 13C0 14.8372 0.931589 16.4566 2.34847 17.4121C2.02241 19.0889 2.50879 20.8936 3.8076 22.1924C5.10641 23.4912 6.91001 23.9776 8.58795 23.6515C9.54337 25.0684 11.1628 26 13 26C14.8372 26 16.4566 25.0684 17.4121 23.6515C19.0889 23.9776 20.8936 23.4912 22.1924 22.1924C23.4912 20.8936 23.9776 19.09 23.6515 17.4121C25.0684 16.4566 26 14.8372 26 13ZM12.9025 16.7036C12.4833 17.1228 11.9319 17.3319 11.3784 17.3319C10.8248 17.3319 10.2681 17.1207 9.84451 16.6982L6.83093 13.7778L8.33989 12.2211L11.3654 15.1535L17.6579 8.97792L19.1788 10.5215L12.9025 16.7036Z" fill="#00FF1A"/>
</svg>
