<svg width="185" height="45" viewBox="0 0 185 45" fill="none" xmlns="http://www.w3.org/2000/svg">
<path d="M10.9261 5.84326H7.82471V38.5261H10.9261V5.84326Z" fill="white"/>
<path d="M14.2822 38.5266V14.7651C15.9949 14.7651 17.3836 16.1535 17.3836 17.8665V35.4253C17.3836 37.138 15.9949 38.5266 14.2822 38.5266Z" fill="white"/>
<path d="M23.0977 5.84326H19.9963V38.5261H23.0977V5.84326Z" fill="white"/>
<path d="M26.4536 38.5266V14.7651C28.1663 14.7651 29.555 16.1535 29.555 17.8665V35.4253C29.555 37.138 28.1663 38.5266 26.4536 38.5266Z" fill="white"/>
<path d="M37.3799 44.369H0V0H37.3799V44.369ZM2.24645 42.1229H35.1337V2.24645H2.24645V42.1229Z" fill="white"/>
<path d="M49.3735 5.58594H43.634V32.93H49.0013C50.565 32.93 51.4994 32.4579 51.8573 31.4865C52.0006 31.0827 52.087 30.5176 52.1143 29.8095L52.114 28.2662L52.0933 22.661C52.0933 21.1596 51.6231 19.8745 50.6955 18.8408L50.5775 18.7093L50.6955 18.5779C51.6228 17.5442 52.0933 16.2594 52.0933 14.7586L52.114 8.73961C52.087 8.03807 52.0069 7.47113 51.8751 7.0626C51.5564 6.06898 50.7381 5.58594 49.3735 5.58594ZM49.0736 28.2039C49.0736 28.8823 48.8391 29.364 48.3764 29.6355C48.1614 29.7644 47.9397 29.8299 47.7184 29.8299C47.6934 29.8299 47.6683 29.8292 47.6436 29.8277L46.7151 29.828V20.5607H47.6771C47.9116 20.5448 48.1489 20.6027 48.3743 20.7313C48.8373 20.9871 49.0733 21.4764 49.0733 22.1845V28.2039H49.0736ZM49.0736 15.2348C49.0736 15.927 48.8391 16.4156 48.3764 16.6867C48.1351 16.8157 47.8953 16.8793 47.6564 16.8793H46.7151V8.74994H47.6771C47.9097 8.73554 48.1482 8.79158 48.3743 8.92056C48.8388 9.19322 49.0733 9.68158 49.0733 10.3737V15.2348H49.0736Z" fill="white"/>
<path d="M61.5503 5.58594H55.8108V32.93H61.1781C62.7417 32.93 63.6762 32.4579 64.034 31.4865C64.1774 31.0827 64.2638 30.5176 64.291 29.8095L64.2907 28.2662L64.2701 22.661C64.2701 21.1596 63.7999 19.8745 62.8723 18.8408L62.7543 18.7093L62.8723 18.5779C63.7995 17.5442 64.2701 16.2594 64.2701 14.7586L64.2907 8.73961C64.2638 8.03807 64.1837 7.47113 64.0519 7.0626C63.7335 6.06898 62.9149 5.58594 61.5503 5.58594ZM61.2507 28.2039C61.2507 28.8823 61.0162 29.364 60.5535 29.6355C60.3384 29.7644 60.1168 29.8299 59.8955 29.8299C59.8704 29.8299 59.8454 29.8292 59.8207 29.8277L58.8922 29.828V20.5607H59.8542C60.088 20.5448 60.3256 20.6027 60.5513 20.7313C61.0143 20.9871 61.2507 21.4764 61.2507 22.1845V28.2039ZM61.2507 15.2348C61.2507 15.927 61.0162 16.4156 60.5535 16.6867C60.3122 16.8157 60.0724 16.8793 59.8335 16.8793H58.8922V8.74994H59.8542C60.0871 8.73554 60.3253 8.79158 60.5513 8.92056C61.0159 9.19322 61.2507 9.68158 61.2507 10.3737V15.2348Z" fill="white"/>
<path d="M79.2129 17.7273H76.8344V8.6673H80.2886V5.58594H73.7527V32.93H76.8344V20.8087H79.2129V17.7273Z" fill="white"/>
<path d="M89.0338 5.58594H85.9524V32.93H89.0338V5.58594Z" fill="white"/>
<path d="M100.434 32.93H103.55V5.58594H100.469V18.1925L100.078 18.2273L97.8111 5.58594H94.6975V32.93H97.7792V21.2332L98.1689 21.1959L100.434 32.93Z" fill="white"/>
<path d="M115.727 29.786L116.119 32.93H119.198L115.772 5.58594H112.665L109.239 32.93H112.318L112.711 29.786H115.727ZM114.207 17.6444L115.342 26.7253H113.097L114.207 17.6444Z" fill="white"/>
<path d="M130.625 32.93H133.741V5.58594H130.659V18.1925L130.269 18.2273L128.002 5.58594H124.888V32.93H127.97V21.2332L128.36 21.1959L130.625 32.93Z" fill="white"/>
<path d="M148.381 15.7001V9.60874C148.381 8.38659 147.934 7.32003 147.053 6.43847C146.185 5.5707 145.118 5.13086 143.882 5.13086C142.659 5.13086 141.592 5.57101 140.711 6.43941C139.845 7.31877 139.405 8.38596 139.405 9.60874V28.9274C139.405 30.1505 139.845 31.2174 140.713 32.0993C141.592 32.9652 142.659 33.4053 143.882 33.4053C145.119 33.4053 146.185 32.9655 147.053 32.098C147.934 31.2165 148.381 30.1496 148.381 28.9274V22.7948H145.237V29.341C145.237 29.7107 145.107 30.0291 144.849 30.2867C144.573 30.5459 144.249 30.6752 143.882 30.6752C143.512 30.6752 143.194 30.5447 142.937 30.2867C142.667 30.0331 142.528 29.7135 142.528 29.341V9.1952C142.528 8.82298 142.667 8.50336 142.941 8.2454C143.191 7.97931 143.51 7.84032 143.882 7.84032C144.252 7.84032 144.577 7.97806 144.849 8.24947C145.107 8.50774 145.237 8.8258 145.237 9.1952V15.7001H148.381Z" fill="white"/>
<path d="M157.126 5.58594H154.045V32.93H157.126V5.58594Z" fill="white"/>
<path d="M169.303 29.786L169.696 32.93H172.774L169.348 5.58594H166.241L162.815 32.93H165.894L166.287 29.786H169.303ZM167.782 17.644L168.917 26.7253H166.673L167.782 17.644Z" fill="white"/>
<path d="M178.464 5.58594V32.93H185V29.8483H181.545V5.58594H178.464Z" fill="white"/>
<path d="M126.055 42.5034C125.692 42.3651 125.407 42.1688 125.199 41.9146C124.992 41.6604 124.888 41.3636 124.888 41.0246H126.075C126.101 41.2788 126.216 41.4879 126.42 41.6519C126.624 41.8157 126.911 41.8977 127.281 41.8977C127.663 41.8977 127.962 41.8172 128.176 41.656C128.389 41.4951 128.496 41.2872 128.496 41.033C128.496 40.8355 128.43 40.674 128.297 40.55C128.164 40.4254 127.999 40.3296 127.801 40.2617C127.603 40.1937 127.329 40.1205 126.979 40.0413C126.538 39.9395 126.18 39.8362 125.905 39.7317C125.629 39.6274 125.394 39.465 125.199 39.2446C125.005 39.0239 124.908 38.7305 124.908 38.363C124.908 38.024 125.005 37.7272 125.199 37.473C125.394 37.2188 125.666 37.0241 126.017 36.8882C126.367 36.7527 126.772 36.6851 127.232 36.6851C127.887 36.6851 128.423 36.8278 128.842 37.113C129.26 37.3985 129.492 37.7895 129.537 38.2869H128.312C128.292 38.0722 128.176 37.8887 127.962 37.736C127.748 37.5835 127.466 37.5071 127.115 37.5071C126.797 37.5071 126.539 37.5779 126.338 37.7191C126.136 37.8606 126.036 38.0637 126.036 38.3295C126.036 38.5101 126.099 38.6585 126.226 38.7747C126.352 38.8902 126.513 38.9819 126.707 39.0498C126.902 39.1178 127.168 39.1913 127.505 39.2702C127.952 39.3776 128.317 39.4853 128.599 39.5924C128.881 39.6997 129.121 39.8653 129.318 40.0882C129.516 40.3114 129.615 40.6098 129.615 40.9823C129.615 41.2819 129.522 41.5643 129.338 41.8301C129.153 42.0958 128.884 42.309 128.531 42.4699C128.177 42.6312 127.76 42.7116 127.281 42.7116C126.826 42.7113 126.418 42.6421 126.055 42.5034Z" fill="white"/>
<path d="M134.37 37.5407V39.2694H136.704V40.0579H134.37V41.863H136.996V42.6513H133.262V36.7524H136.996V37.5407H134.37Z" fill="white"/>
<path d="M144.202 42.6516L142.646 40.2956H141.8V42.6516H140.692V36.7612H143.025C143.544 36.7612 143.983 36.8404 144.343 36.9985C144.703 37.1566 144.972 37.3689 145.15 37.634C145.328 37.9001 145.418 38.1966 145.418 38.524C145.418 38.9084 145.29 39.2572 145.034 39.5709C144.777 39.8845 144.383 40.098 143.852 40.2107L145.525 42.6516H144.202ZM141.8 39.5242H143.025C143.44 39.5242 143.753 39.4337 143.964 39.2531C144.175 39.0722 144.28 38.8292 144.28 38.524C144.28 38.2188 144.176 37.9803 143.969 37.8078C143.761 37.6356 143.447 37.5495 143.025 37.5495H141.8V39.5242Z" fill="white"/>
<path d="M154.997 36.7612L152.459 42.6516H151.175L148.627 36.7612H149.814L151.817 41.6602L153.83 36.7612H154.997Z" fill="white"/>
<path d="M159.364 36.7612V42.6516H158.255V36.7612H159.364Z" fill="white"/>
<path d="M163.249 38.1429C163.557 37.6849 163.975 37.3278 164.504 37.0707C165.032 36.8137 165.611 36.6851 166.24 36.6851C166.959 36.6851 167.6 36.8391 168.161 37.1471C168.722 37.4552 169.129 37.8916 169.381 38.4563H168.049C167.874 38.1458 167.631 37.9138 167.319 37.7613C167.008 37.6089 166.648 37.5325 166.24 37.5325C165.793 37.5325 165.394 37.6201 165.044 37.7951C164.694 37.9701 164.419 38.2218 164.222 38.5493C164.024 38.877 163.925 39.2587 163.925 39.6935C163.925 40.1283 164.024 40.5099 164.222 40.8377C164.419 41.1654 164.694 41.4181 165.044 41.5959C165.394 41.774 165.793 41.8629 166.24 41.8629C166.648 41.8629 167.008 41.7865 167.319 41.6341C167.63 41.4813 167.873 41.2497 168.049 40.9388H169.381C169.129 41.5039 168.722 41.9393 168.161 42.2439C167.6 42.5491 166.96 42.7019 166.24 42.7019C165.604 42.7019 165.024 42.5732 164.499 42.3162C163.974 42.0592 163.557 41.7014 163.249 41.244C162.941 40.7863 162.787 40.2695 162.787 39.6932C162.787 39.1168 162.941 38.6003 163.249 38.1429Z" fill="white"/>
<path d="M174.117 37.5407V39.2694H176.451V40.0579H174.117V41.863H176.743V42.6513H173.009V36.7524H176.743V37.5407H174.117Z" fill="white"/>
<path d="M181.44 42.5034C181.077 42.3651 180.792 42.1688 180.584 41.9146C180.377 41.6604 180.273 41.3636 180.273 41.0246H181.46C181.486 41.2788 181.601 41.4879 181.805 41.6519C182.009 41.8157 182.296 41.8977 182.666 41.8977C183.048 41.8977 183.347 41.8172 183.561 41.656C183.774 41.4951 183.881 41.2872 183.881 41.033C183.881 40.8355 183.815 40.674 183.682 40.55C183.549 40.4254 183.384 40.3296 183.186 40.2617C182.988 40.1937 182.714 40.1205 182.364 40.0413C181.923 39.9395 181.565 39.8362 181.29 39.7317C181.014 39.6274 180.779 39.465 180.584 39.2446C180.39 39.0239 180.293 38.7305 180.293 38.363C180.293 38.024 180.39 37.7272 180.584 37.473C180.779 37.2188 181.051 37.0241 181.402 36.8882C181.752 36.7527 182.157 36.6851 182.617 36.6851C183.272 36.6851 183.808 36.8278 184.227 37.113C184.645 37.3985 184.877 37.7895 184.922 38.2869H183.697C183.677 38.0722 183.561 37.8887 183.347 37.736C183.133 37.5835 182.851 37.5071 182.5 37.5071C182.182 37.5071 181.923 37.5779 181.723 37.7191C181.521 37.8606 181.421 38.0637 181.421 38.3295C181.421 38.5101 181.484 38.6585 181.611 38.7747C181.737 38.8902 181.898 38.9819 182.092 39.0498C182.287 39.1178 182.553 39.1913 182.89 39.2702C183.337 39.3776 183.702 39.4853 183.984 39.5924C184.266 39.6997 184.506 39.8653 184.703 40.0882C184.901 40.3114 185 40.6098 185 40.9823C185 41.2819 184.907 41.5643 184.723 41.8301C184.538 42.0955 184.269 42.309 183.916 42.4699C183.562 42.6312 183.145 42.7116 182.666 42.7116C182.212 42.7113 181.803 42.6421 181.44 42.5034Z" fill="white"/>
<path d="M119.198 39.6328H43.6338V39.763H119.198V39.6328Z" fill="white"/>
</svg>
